<svg xmlns="http://www.w3.org/2000/svg" xmlns:xlink="http://www.w3.org/1999/xlink" viewBox="0 0 467.63 162.01"><defs><style>.cls-1,.cls-2,.cls-3,.cls-4,.cls-5{stroke:#939598;stroke-miterlimit:10;}.cls-1{fill:url(#radial-gradient);}.cls-2{fill:url(#radial-gradient-2);}.cls-3{fill:url(#radial-gradient-3);}.cls-4{fill:url(#radial-gradient-4);}.cls-5{fill:url(#radial-gradient-5);}.cls-6{fill:url(#linear-gradient);}.cls-7{fill:url(#linear-gradient-2);}.cls-8{fill:url(#linear-gradient-3);}</style><radialGradient id="radial-gradient" cx="81" cy="81" r="80.5" gradientUnits="userSpaceOnUse"><stop offset="0" stop-color="#fff"/><stop offset="1" stop-color="#fff"/></radialGradient><radialGradient id="radial-gradient-2" cx="-4.38" cy="170.31" r="80.5" gradientTransform="translate(84.59 -58.34) scale(0.82)" gradientUnits="userSpaceOnUse"><stop offset="0" stop-color="#fff"/><stop offset="1" stop-color="#e6e6e6"/><stop offset="1" stop-color="#e8e8e8"/></radialGradient><radialGradient id="radial-gradient-3" cx="-205.37" cy="380.54" r="70.24" gradientTransform="translate(198.79 -137.1) scale(0.57)" gradientUnits="userSpaceOnUse"><stop offset="0" stop-color="#fff"/><stop offset="1" stop-color="#e6e6e6"/></radialGradient><radialGradient id="radial-gradient-4" cx="81" cy="80.51" r="56.03" xlink:href="#radial-gradient"/><radialGradient id="radial-gradient-5" cx="-590.98" cy="783.85" r="110.62" gradientTransform="translate(296.07 -204.19) scale(0.36)" xlink:href="#radial-gradient-3"/><linearGradient id="linear-gradient" x1="0.5" y1="81" x2="161.51" y2="81" gradientUnits="userSpaceOnUse"><stop offset="0" stop-color="#00a79d"/><stop offset="1" stop-color="#1b75bc"/></linearGradient><linearGradient id="linear-gradient-2" x1="25.13" y1="80.84" x2="137.2" y2="80.84" xlink:href="#linear-gradient"/><linearGradient id="linear-gradient-3" x1="172.73" y1="82.86" x2="467.63" y2="82.86" xlink:href="#linear-gradient"/></defs><title>logo_2</title><g id="Layer_2" data-name="Layer 2"><g id="Layer_1-2" data-name="Layer 1"><circle class="cls-1" cx="81" cy="81" r="80.5"/><circle class="cls-2" cx="81" cy="81" r="65.87"/><circle class="cls-3" cx="81.17" cy="80.84" r="40.23"/><circle class="cls-4" cx="81" cy="80.51" r="56.03"/><circle class="cls-5" cx="81.17" cy="80.84" r="40.23"/><path class="cls-6" d="M81,161.51A80.5,80.5,0,0,1,24.08,24.08,79.94,79.94,0,0,1,81,.5V15.14A65.87,65.87,0,1,0,146.87,81h14.64A80.51,80.51,0,0,1,81,161.51Z"/><path class="cls-7" d="M81.17,136.88a56,56,0,1,1,0-112.07v16a40,40,0,1,0,36.68,56H81.17v-16h56A56.1,56.1,0,0,1,81.17,136.88Z"/><path class="cls-8" d="M175.14,50.36c0-14.56,11.18-25,26.22-25,8.35,0,15.32,3,19.87,8.56l-7.17,6.62a15.58,15.58,0,0,0-12.15-5.66c-9,0-15.45,6.35-15.45,15.46s6.41,15.46,15.45,15.46a15.43,15.43,0,0,0,12.15-5.73l7.17,6.62c-4.55,5.59-11.52,8.63-19.94,8.63C186.32,75.34,175.14,64.92,175.14,50.36Z"/><path class="cls-8" d="M273.05,26.21v48.3H261.87V54.71H239.93v19.8H228.75V26.21h11.18v19h21.94v-19Z"/><path class="cls-8" d="M284.51,26.21h11.17v48.3H284.51Z"/><path class="cls-8" d="M339.77,49.6H350V69.2a33.37,33.37,0,0,1-19.53,6.14c-15.18,0-26.36-10.42-26.36-25s11.18-25,26.56-25c8.49,0,15.53,2.9,20.22,8.35l-7.17,6.63a16.34,16.34,0,0,0-12.49-5.46c-9.39,0-15.8,6.28-15.8,15.46s6.41,15.46,15.66,15.46a17.84,17.84,0,0,0,8.69-2.07Z"/><path class="cls-8" d="M392.14,64.16H369.72l-4.28,10.35H354l21.52-48.3h11l21.6,48.3H396.42Zm-3.52-8.49L381,37.18l-7.66,18.49Z"/><path class="cls-8" d="M457.14,74.51l-.07-29L442.86,69.4h-5L423.68,46.15V74.51H413.19V26.21h9.24l18.08,30,17.8-30h9.18l.14,48.3Z"/><path class="cls-8" d="M188.18,100.32H172.73V91.21h42.09v9.11H199.36v39.19H188.18Z"/><path class="cls-8" d="M258.22,130.54v9h-37.4V91.21h36.5v9H231.93v10.49h22.42v8.69H231.93v11.18Z"/><path class="cls-8" d="M263.94,115.36c0-14.56,11.18-25,26.22-25,8.35,0,15.32,3,19.88,8.56l-7.18,6.62a15.55,15.55,0,0,0-12.14-5.66c-9,0-15.46,6.35-15.46,15.46s6.42,15.46,15.46,15.46a15.4,15.4,0,0,0,12.14-5.73l7.18,6.62c-4.56,5.59-11.53,8.63-20,8.63C275.12,140.34,263.94,129.92,263.94,115.36Z"/><path class="cls-8" d="M361.85,91.21v48.3H350.68v-19.8H328.73v19.8H317.56V91.21h11.17v19h21.95v-19Z"/><path class="cls-8" d="M369.93,133.3a6.69,6.69,0,0,1,13.38,0,6.69,6.69,0,1,1-13.38,0Z"/></g></g></svg>